<svg id="Layer_1" data-name="Layer 1" xmlns="http://www.w3.org/2000/svg" viewBox="0 0 24 24"><defs><style>.cls-1{fill:none;}.cls-2{fill:#fff;}.cls-3{fill:#90191c;}</style></defs><title>cache_icon_type_giga</title><rect class="cls-1" width="24" height="24"/><circle class="cls-2" cx="12" cy="12" r="12"/><circle class="cls-3" cx="12" cy="12" r="10"/><path class="cls-2" d="M8,13.63a3.61,3.61,0,0,1-.86.28,4.81,4.81,0,0,1-.91.09,2.85,2.85,0,0,1-.91-.14,2.14,2.14,0,0,1-.72-.4,1.82,1.82,0,0,1-.47-.63,2.1,2.1,0,0,1,0-1.66,1.82,1.82,0,0,1,.47-.63,2.14,2.14,0,0,1,.72-.4A2.85,2.85,0,0,1,6.28,10a3.72,3.72,0,0,1,.93.11,1.89,1.89,0,0,1,.75.38l-.66.65a1.32,1.32,0,0,0-.43-.27,1.68,1.68,0,0,0-.6-.09,1.51,1.51,0,0,0-.54.09,1.22,1.22,0,0,0-.41.26,1.11,1.11,0,0,0-.27.39,1.35,1.35,0,0,0,0,1,1.12,1.12,0,0,0,.27.39,1.22,1.22,0,0,0,.41.26,1.51,1.51,0,0,0,.54.09,2,2,0,0,0,.52-.06A2.11,2.11,0,0,0,7.15,13v-.62H6.4v-.77H8ZM9.1,10.1H10V13.9H9.1Zm5.84,3.54a3.61,3.61,0,0,1-.86.28,4.81,4.81,0,0,1-.91.09,2.85,2.85,0,0,1-.91-.14,2.14,2.14,0,0,1-.72-.4,1.82,1.82,0,0,1-.47-.63,2.1,2.1,0,0,1,0-1.66,1.82,1.82,0,0,1,.47-.63,2.14,2.14,0,0,1,.72-.4,2.85,2.85,0,0,1,.91-.14,3.72,3.72,0,0,1,.93.11,1.89,1.89,0,0,1,.75.38l-.66.65a1.32,1.32,0,0,0-.43-.27,1.68,1.68,0,0,0-.6-.09,1.51,1.51,0,0,0-.54.09,1.22,1.22,0,0,0-.41.26,1.11,1.11,0,0,0-.27.39,1.35,1.35,0,0,0,0,1,1.12,1.12,0,0,0,.27.39,1.22,1.22,0,0,0,.41.26,1.51,1.51,0,0,0,.54.09,2,2,0,0,0,.52-.06A2.11,2.11,0,0,0,14,13v-.62h-.76v-.77h1.65ZM17.4,10.1h.77L20,13.9H19l-.36-.81H16.95l-.35.81h-1Zm.36,1.11-.51,1.18h1Z"/><path class="cls-2" d="M8,13.63a3.61,3.61,0,0,1-.86.28,4.81,4.81,0,0,1-.91.09,2.85,2.85,0,0,1-.91-.14,2.14,2.14,0,0,1-.72-.4,1.82,1.82,0,0,1-.47-.63,2.1,2.1,0,0,1,0-1.66,1.82,1.82,0,0,1,.47-.63,2.14,2.14,0,0,1,.72-.4A2.85,2.85,0,0,1,6.28,10a3.72,3.72,0,0,1,.93.11,1.89,1.89,0,0,1,.75.38l-.66.65a1.32,1.32,0,0,0-.43-.27,1.68,1.68,0,0,0-.6-.09,1.51,1.51,0,0,0-.54.09,1.22,1.22,0,0,0-.41.26,1.11,1.11,0,0,0-.27.39,1.35,1.35,0,0,0,0,1,1.12,1.12,0,0,0,.27.39,1.22,1.22,0,0,0,.41.26,1.51,1.51,0,0,0,.54.09,2,2,0,0,0,.52-.06A2.11,2.11,0,0,0,7.15,13v-.62H6.4v-.77H8ZM9.1,10.1H10V13.9H9.1Zm5.84,3.54a3.61,3.61,0,0,1-.86.28,4.81,4.81,0,0,1-.91.09,2.85,2.85,0,0,1-.91-.14,2.14,2.14,0,0,1-.72-.4,1.82,1.82,0,0,1-.47-.63,2.1,2.1,0,0,1,0-1.66,1.82,1.82,0,0,1,.47-.63,2.14,2.14,0,0,1,.72-.4,2.85,2.85,0,0,1,.91-.14,3.72,3.72,0,0,1,.93.11,1.89,1.89,0,0,1,.75.38l-.66.65a1.32,1.32,0,0,0-.43-.27,1.68,1.68,0,0,0-.6-.09,1.51,1.51,0,0,0-.54.09,1.22,1.22,0,0,0-.41.26,1.11,1.11,0,0,0-.27.39,1.35,1.35,0,0,0,0,1,1.12,1.12,0,0,0,.27.39,1.22,1.22,0,0,0,.41.26,1.51,1.51,0,0,0,.54.09,2,2,0,0,0,.52-.06A2.11,2.11,0,0,0,14,13v-.62h-.76v-.77h1.65ZM17.4,10.1h.77L20,13.9H19l-.36-.81H16.95l-.35.81h-1Zm.36,1.11-.51,1.18h1Z"/></svg>