<svg id="Layer_1" data-name="Layer 1" xmlns="http://www.w3.org/2000/svg" viewBox="0 0 24 24"><defs><style>.cls-1{fill:none;}.cls-2{fill:#fff;}.cls-3{fill:#12b265;}</style></defs><title>cache_icon_type_hq</title><rect class="cls-1" width="24" height="24"/><circle class="cls-2" cx="12" cy="12" r="12"/><circle class="cls-3" cx="12" cy="12" r="10"/><polygon class="cls-2" points="9.59 8.19 9.59 10.91 7.15 10.91 7.15 8.19 5.91 8.19 5.91 14.96 7.15 14.96 7.15 12.12 9.59 12.12 9.59 14.96 10.83 14.96 10.83 8.19 9.59 8.19"/><path class="cls-2" d="M17.79,14l1.15,1.51H17.45l-.58-.76a3.46,3.46,0,0,1-4.09-.64,3.62,3.62,0,0,1-.53-4.25,3.44,3.44,0,0,1,1.26-1.28,3.34,3.34,0,0,1,1.73-.47,3.27,3.27,0,0,1,2.42,1,3.45,3.45,0,0,1,1,2.51A3.44,3.44,0,0,1,17.79,14Z"/><path class="cls-3" d="M17,13a2.35,2.35,0,0,0,.4-1.33A2.26,2.26,0,0,0,16.77,10a2,2,0,0,0-1.53-.67,2.07,2.07,0,0,0-1.55.65,2.27,2.27,0,0,0-.63,1.65,2.19,2.19,0,0,0,2.19,2.26,2,2,0,0,0,.85-.18L14.9,12.17h1.5Z"/></svg>