<svg id="Layer_1" data-name="Layer 1" xmlns="http://www.w3.org/2000/svg" viewBox="0 0 24 24"><defs><style>.cls-1{fill:none;}.cls-2{fill:#fff;}.cls-3{fill:#01884e;}</style></defs><title>cache_icon_type_traditional</title><rect class="cls-1" width="24" height="24"/><circle class="cls-2" cx="12" cy="12" r="12"/><circle class="cls-3" cx="12" cy="12" r="10"/><path class="cls-2" d="M18.71,8.22A.22.22,0,0,0,18.5,8H12.74L5.18,9.85s-.18,0-.18.37v1a.29.29,0,0,0,.31.33l.12,0v3.35a1.41,1.41,0,0,0,1.28,1.51H11a1.14,1.14,0,0,0,.59-.17h0l5.55-2.3c1.14-.51,1.18-.93,1.16-1.75,0-.1,0-.2,0-.32V9.31a2.87,2.87,0,0,1,.3-.06A.21.21,0,0,0,18.72,9c0-.2,0-.61,0-.83Zm-7.92,7.27H6.92a.75.75,0,0,1-.63-.83V11.53h5.13v3.13a.75.75,0,0,1-.63.83ZM17.43,12c0,.66-.06.79-.77,1.11L12.26,15a1.9,1.9,0,0,0,0-.3V11.53s.33-.19.43-.22c.92-.32,3.39-1.21,4.71-1.68v2.05c0,.12,0,.23,0,.33Z"/></svg>