<svg id="Layer_1" data-name="Layer 1" xmlns="http://www.w3.org/2000/svg" viewBox="0 0 24 24"><defs><style>.cls-1{fill:none;}.cls-2{fill:#fff;}.cls-3{fill:#12b265;}</style></defs><title>cache_icon_type_laf10</title><rect class="cls-1" width="24" height="24"/><circle class="cls-2" cx="12" cy="12" r="12"/><circle class="cls-3" cx="12" cy="12" r="10"/><polygon class="cls-2" points="18.08 15.66 15.99 15.66 16.07 7.45 18.77 7.48 18.08 15.66"/><polygon class="cls-2" points="18.12 17.9 15.83 17.82 15.84 16.05 18.19 16.05 18.12 17.9"/><path class="cls-2" d="M12.9,14.07a2.25,2.25,0,0,1-2.26-2.34,2.24,2.24,0,1,1,4.46-.16,2.31,2.31,0,0,1-2.21,2.5Z"/><path class="cls-2" d="M15.62,10.1A2.9,2.9,0,0,0,13,8.53a3.12,3.12,0,0,0-3.16,3.15,2.93,2.93,0,0,0,3,3.12,3.11,3.11,0,0,0,2.74-1.52l-.09,2.39H6.53L6,7l9.73.32Z"/><path class="cls-3" d="M9.15,8.89c-.28.31-2.45,2.27-2.64,2.43l.44.51c.28-.28,1-1,1.31-1.3V13c0,1.27-.06,2.44-.06,2.69h.91c0-.29,0-1.13,0-2.48V11.72c0-1.27.08-2.52.08-2.83Z"/><polygon class="cls-2" points="15.28 17.77 6.68 17.77 6.58 16.09 15.38 16.06 15.28 17.77"/></svg>