<svg id="Layer_1" data-name="Layer 1" xmlns="http://www.w3.org/2000/svg" viewBox="0 0 24 24"><defs><style>.cls-1{fill:none;}.cls-2{fill:#fff;}.cls-3{fill:#143c64;}.cls-4{fill:#0ca04b;}</style></defs><title>cache_icon_type_cito</title><rect class="cls-1" width="24" height="24"/><circle class="cls-2" cx="12" cy="12" r="12"/><path class="cls-3" d="M11.87,2.11A9.86,9.86,0,1,1,2,12a9.86,9.86,0,0,1,9.86-9.86"/><path class="cls-4" d="M4.86,18.12A9.37,9.37,0,0,1,18.27,5.06,4.72,4.72,0,0,0,11.92,12h0a4.71,4.71,0,0,1-3.57,7.82,4.4,4.4,0,0,1-3.5-1.66"/><path class="cls-2" d="M8.06,12.61A.59.59,0,1,0,7.47,12a.59.59,0,0,0,.59.59"/><path class="cls-2" d="M6.8,17.45a4.93,4.93,0,0,1,1.27-3.33A4,4,0,0,1,9.6,16.57h1.18a4.49,4.49,0,0,0-2-3,3.12,3.12,0,0,0,1.36-2.36H9.64c-.07.47-.32,1.19-1.57,1.92-1.32-.77-1.52-1.45-1.57-1.92H6a3,3,0,0,0,1.37,2.36,6.18,6.18,0,0,0-1.76,3.84H6.8M17,8.14l.22-1-.27.16-.6-1a.84.84,0,0,0-1.55,0L14.1,7.52l.61.35.69-1.19c.07-.12.1-.16.16-.16s.1,0,.16.16l.6,1L16,7.86l.94.29Zm-.87,2.92v-.32h1.22a.84.84,0,0,0,.78-1.34l-.69-1.18-.61.35.69,1.18c.07.12.09.17.06.22s-.09.06-.22.06H16.12V9.73l-.72.67.72.67Zm-2.33-.32A.84.84,0,0,1,13,9.4l.59-1-.28-.16L14.26,8l.22,1-.27-.16-.59,1c-.07.12-.09.17-.06.22s.09.06.22.06h1.33v.71Z"/></svg>