<svg id="Layer_1" data-name="Layer 1" xmlns="http://www.w3.org/2000/svg" viewBox="0 0 24 24"><defs><style>.cls-1{fill:none;}.cls-2{fill:#fff;}.cls-3{fill:#089cbc;}</style></defs><title>cache_icon_type_virtual</title><rect class="cls-1" width="24" height="24"/><circle class="cls-2" cx="12" cy="12" r="12"/><circle class="cls-3" cx="12" cy="12" r="10"/><path class="cls-2" d="M15.75,9.69c0,.05,0-.05,0,0Zm.32,4.61c1.74-1.63,2.07-4,1.3-4.21-.54-.14-.83.35-1.6,1,0-.53,0-1,0-1.4,0-2.16-1.1-4-3.62-4S8.47,7.46,8.47,9.8c0,0-.06.7-.11,1.4C7.5,10.5,7.21,10,6.63,10.09c-.81.2-.4,2.81,1.56,4.44l0,0a9.38,9.38,0,0,1-.37,2.28c-.72,2.1,1.86.68,2.43.68s1.3.79,2.22.8,1-.54,2-.8c.62-.16,2.8,1.56,2-1.2-.18-.62-.35-1.32-.49-2ZM10.3,9.89c0-.55.27-1,.61-1s.61.45.61,1-.27,1-.61,1-.61-.45-.61-1Zm1.82,2.78c-.49,0-1-.42-1-.75s.55.1,1,.1,1-.45,1-.12-.52.77-1,.77Zm1.21-1.78c-.33,0-.61-.45-.61-1s.27-1,.61-1,.61.45.61,1-.27,1-.61,1Z"/></svg>