<svg id="Layer_1" data-name="Layer 1" xmlns="http://www.w3.org/2000/svg" viewBox="0 0 24 24"><defs><style>.cls-1{fill:none;}.cls-2{fill:#fff;}.cls-3{fill:#01884e;}</style></defs><title>cache_icon_type_ape</title><rect class="cls-1" width="24" height="24"/><circle class="cls-2" cx="12" cy="12" r="12"/><circle class="cls-3" cx="12" cy="12" r="10"/><path class="cls-2" d="M7.1,10.12h0l-.6,2.31H7.7l-.6-2.31Zm6.76,1.26a1.67,1.67,0,0,0-1.5-1.9h-.59v3.73h.65c.52,0,1.44-.38,1.44-1.83ZM19.36,8l0,1.54H17.39v1.08h1.87v1.51H17.39v1h1.93l0,1.57H16V8ZM8,8l2.09,6.64V8h2.22a2.83,2.83,0,0,1,1.91.48,3.54,3.54,0,0,1,1.18,2.87,3.39,3.39,0,0,1-1.11,2.77,2.39,2.39,0,0,1-1.81.57h-.69v2.56H10.07V14.74H8.4l-.27-.94H6l-.3.94H4L6.27,8Z"/></svg>