<svg id="Layer_1" data-name="Layer 1" xmlns="http://www.w3.org/2000/svg" viewBox="0 0 24 24"><defs><style>.cls-1{fill:none;}.cls-2{fill:#fff;}.cls-3{fill:#13518d;}</style></defs><title>cache_icon_type_mystery</title><rect class="cls-1" width="24" height="24"/><circle class="cls-2" cx="12" cy="12" r="12"/><circle class="cls-3" cx="12" cy="12" r="10"/><path class="cls-2" d="M11.57,5.76C8.09,5.76,7.44,8,7.44,9.09c0,1.25.87,1.66,2,1.66a1.37,1.37,0,0,0,1.52-1.25,1.19,1.19,0,0,0-1.3-1.25c0-.43.71-.83,2-.83a1.75,1.75,0,0,1,2,1.66c0,.83-.23,1.23-1.3,2.08-1.3,1-1.74,1.66-1.74,2.5,0,.42,0,.61,0,.83s.43.42.87.42.87-.21.87-.42c0-.87,0-1.26,2-2.5s2.39-1.87,2.39-2.91c0-1.25-.65-3.33-5-3.33Zm-.22,10A1.25,1.25,0,1,0,12.65,17a1.28,1.28,0,0,0-1.3-1.25Z"/></svg>