<?xml version="1.0" encoding="utf-8"?>
<!-- Generator: Adobe Illustrator 22.1.0, SVG Export Plug-In . SVG Version: 6.00 Build 0)  -->
<svg version="1.1" id="Layer_1" xmlns="http://www.w3.org/2000/svg" xmlns:xlink="http://www.w3.org/1999/xlink" x="0px" y="0px"
	 viewBox="0 0 24 24" style="enable-background:new 0 0 24 24;" xml:space="preserve">
<style type="text/css">
	.st0{fill:none;}
	.st1{fill:#FFFFFF;}
	.st2{fill:#90191C;}
</style>
<g id="Layer_1_1_">
	<title>cache_icon_type_mega</title>
	<rect class="st0" width="24" height="24"/>
	<circle class="st1" cx="12" cy="12" r="12"/>
	<circle class="st2" cx="12" cy="12" r="10"/>
	<path class="st1" d="M4,10.2h1.2L6,12.4l0.8-2.2H8v3.4H7.3V11l-1,2.6H5.7L4.8,11v2.6H4V10.2z M9,10.2h2.5v0.7H9.9v0.6h1.5v0.7H9.9
		v0.7h1.6v0.7H9V10.2z M17.8,10.2h0.7l1.6,3.4h-0.9l-0.3-0.7h-1.4l-0.3,0.7h-0.9L17.8,10.2z M18.1,11.2l-0.4,1.1h0.9L18.1,11.2z
		 M14.1,13.7c-1.2,0-1.9-0.6-1.9-1.9c0-1.2,0.9-1.8,1.9-1.8c0.9,0,1.3,0.3,1.4,0.4L15,11.1c-0.1-0.1-0.3-0.3-0.9-0.3
		c-0.8,0-1.1,0.6-1.1,1.1c0,0.6,0.4,1.1,1.1,1.1c0.4,0,0.7-0.1,0.8-0.2v-0.6h-0.6v-0.7h1.5v1.8C15.8,13.3,14.9,13.7,14.1,13.7z"/>
</g>
<g id="Layer_2_1_">
</g>
</svg>
