<svg id="Layer_1" data-name="Layer 1" xmlns="http://www.w3.org/2000/svg" viewBox="0 0 24 24"><defs><style>.cls-1{fill:none;}.cls-2{fill:#fff;}.cls-3{fill:#ede9d1;}.cls-4{fill:#253c93;}.cls-5{fill:#ffcc18;}.cls-6{fill:#5cb947;}.cls-7{fill:#1a6b36;}</style></defs><title>cache_icon_type_gspa</title><rect class="cls-1" width="24" height="24"/><circle class="cls-2" cx="12" cy="12" r="12"/><circle class="cls-3" cx="12" cy="12" r="10"/><path class="cls-4" d="M15.31,13.24c-.07.08-.16.31-.26.36a.86.86,0,0,1-.08.26,1,1,0,0,1-.86.53,1,1,0,0,1-.4-.08.93.93,0,0,1-.47-.45,1,1,0,0,1-.32.13l-.21,0-.19,0a.83.83,0,0,1-.32.25,1,1,0,0,1-1-.1.94.94,0,0,1-.47.48,1,1,0,0,1-.41.09,1,1,0,0,1-.87-.53.9.9,0,0,1-.08-.26s-.08-.2-.11-.23a4,4,0,0,0-.86,1.63,3.89,3.89,0,0,0,.49,3.07,4.19,4.19,0,0,0,2.61,1.84,4.35,4.35,0,0,0,3.2-.47,4,4,0,0,0,1.92-2.5,3.9,3.9,0,0,0-.49-3.07"/><path class="cls-5" d="M11,5.33l.06-.05.07-.08a.52.52,0,0,0,.1-.31.53.53,0,0,0,0-.09.55.55,0,0,0-.55-.44h-.09a.54.54,0,0,0-.45.62.53.53,0,0,0,.29.38l.06,0,0,.93h.84l-.34-1"/><path class="cls-6" d="M15.41,14.73l0-.33h-.1l.07.22-.09.19.15-.07Zm-.54,1.43-.09,0,.38.29-.08-.19-.27-.41.14.08-.1-.41.06,0,.14-.21-.14-.44h-.09l0-.08.28.12L15,14.7l.18-.39-.28-.12L14.89,14l-.11-.15a1,1,0,0,1-.78.39,1,1,0,0,1-.4-.08.93.93,0,0,1-.41-.34l0,0-.06.25-.24,0,0,.14-.31,0v.1l-.47-.06-.27.58L12,15v0l.15.09v-.36l.08.11,0,0v.3l-.18.08-.1-.09,0,.12-.14.13-.22-.23,0,0,.06.08-.08.1.09-.06,0,.16h.13l0,.23-.15.07,0,.13.11,0,.07-.12.15-.1.28.15.11-.06,0,.05,0-.15.14.1.14,0,0,.16-.43.12-.16-.11-.14.05-.17,0-.08.1-.11.41,0,.33.36.27.3-.16.32.45.24.48.28.27.24-.37.07-.38,0-.93-.21,0,.06,0,0-.21.11-.31.21-.09.51.45.13-.55.26.16.21.37Zm-4.22-.36-.08-.11v.1Zm-.08-.11h0Zm.78,1.8-.43-.32-.47.08-.23.08-.07-.14L10,17.08l-.09.12H9.77l0-.33.15-.09.23.08-.06-.19a2.84,2.84,0,0,1,.18-.53A.78.78,0,0,1,10.4,16l-.11-.12.18-.12-.26-.33h-.3v.48l-.38-.22.22-.61.22.08-.08.17.28-.13-.51-.38.24-.28a1,1,0,0,1-.24-.08l-.26.2.15.09-.14.1.06,0,0,.14-.13.08.16.12-.14.14-.14-.25s-.06.08-.09.09l-.17,0-.15.45v.49l.12.36.5.67V17l.35.22.67.21-.12.25.16.31.39.39.19.48.17.42.16.12,0-.16,0-.49.09-.21,0-.52.13-.52-.22,0ZM11,14.76l.05-.06v-.63H11a1,1,0,0,1-.42.38,1,1,0,0,1-.41.09h-.13l-.06.11h.28l.19.41.27.23.28-.52Zm5.88-8.59-.27,0c-.28,0-.52.2-.68.59a3.62,3.62,0,0,0-.1,1.6c.06.33-.09.36-.73.49l-.09,0c-.68.13-1.36.09-2,.28l-.12-.2a1.39,1.39,0,0,0,.58-1,.9.9,0,0,0,0-.16,1.13,1.13,0,0,0-.65-.9l0,0V6.76c-.23-.81-.74-1.38-1.25-1.38h-.11c-.24,0-.37.19-.54.42a1.31,1.31,0,0,0-.11.17l-.08.15L10.53,6l-.17-.14a1.06,1.06,0,0,0-.59-.2H9.53A.83.83,0,0,0,9,6.06a1.89,1.89,0,0,0-.31,1.07,2.12,2.12,0,0,0,0,.28v.06l0,0a1.06,1.06,0,0,0-.32.77,1.57,1.57,0,0,0,0,.27,1.13,1.13,0,0,0,.52.73,2.18,2.18,0,0,0,.59.27h0l0,0,.17.26.06.09L9.7,10c-.45.32-1.14.85-1.9,1.51l-.13.12c-.3.27-.42.36-.52.36h0A.32.32,0,0,1,7,11.86a2.76,2.76,0,0,0-1.61-1.2l-.19,0a.75.75,0,0,0-.75.48c-.33.79.24,2.29,1.59,3.17a2.21,2.21,0,0,0,1.14.44.8.8,0,0,0,.37-.09c.54-.28.57-1.15.57-1.32v0l0,0a11.23,11.23,0,0,1,2-2.28l.12-.11.07.14a3.3,3.3,0,0,1,.44,1s0,0,0,.06a.84.84,0,0,1-.3.54l-.1.05-.1,0-.05-.09a.54.54,0,0,0-.68-.21.51.51,0,0,0-.27.29.48.48,0,0,0,0,.39.52.52,0,0,0,.35.27l.11,0v.1a.48.48,0,0,0,0,.28.53.53,0,0,0,.48.29.54.54,0,0,0,.23,0,.5.5,0,0,0,.3-.5v-.06l.39-.33.05.18,0,.08a.53.53,0,0,0,.48.29.54.54,0,0,0,.23,0,.37.37,0,0,0,.23-.29l0-.22.17.15a.4.4,0,0,0,.27.1h.11a.41.41,0,0,0,.36-.37l0-.21.18.12.17.11.08,0,0,.09a.49.49,0,0,0,.28.58.53.53,0,0,0,.22,0,.52.52,0,0,0,.47-.29.48.48,0,0,0,0-.27v-.1l.11,0a.51.51,0,0,0,.34-.27.47.47,0,0,0,0-.38.5.5,0,0,0-.27-.28.53.53,0,0,0-.58.1l0,0H14a1.41,1.41,0,0,1-.9-.42,2.32,2.32,0,0,1-.32-1.77V10h.11c.44,0,2.94.09,3.44.13h0l0,0a1.65,1.65,0,0,0,.93.42h0a.65.65,0,0,0,.22,0c.36-.13.58-.6.65-1.39.1-1.16-.5-2.76-1.27-2.94Zm-9.63,8c-.28.25-1-.22-1.68-.88S4.68,11.84,5,11.6s1,.18,1.67.85.94,1.53.66,1.78Zm4.36-8.15c.22,0,.51.18.68.61.27.66.1.85-.4.93s-.73,0-.71-.74c0-.46.2-.77.42-.8ZM9.23,6.8c.09-.46.32-.73.55-.73s.47.26.57.71c.16.69,0,.85-.55.86s-.71-.14-.58-.84Zm3,5.73-.06.08-.11.22L12,12.61c-.08-.16-.19-.36-.29-.54a9,9,0,0,1-.42-1.33l0-.12.09,0,.17,0,.16,0,.13,0,0,.13c0,.19.14.58.24,1s.16.57.22.75l.06.16-.06.05ZM11.09,9.17a3.78,3.78,0,0,1-.61,0A1.63,1.63,0,0,1,9,8.41c.33,0,1.14-.14,2.08-.24l.5-.05L13,8c-.09.32-.46,1-1.89,1.19Zm6.36.84c-.33.06-.81-.66-.95-1.5s-.05-1.63.28-1.69.79.63.93,1.48.07,1.66-.26,1.72Zm-2,6.56-.18.18.12.4h.24l.11-.16h.06l.13-.32v-.22l-.21,0-.28.13Zm-.81,2.08.21.06.24-.2.16-.52-.33.45-.29.22Zm1.09-3-.09-.36-.08-.36L15.4,15l.16.28.18.37Zm-.4.49,0-.25-.08.32.13-.06Z"/><path class="cls-4" d="M6.16,10.86a2,2,0,0,1,.07.43,1.74,1.74,0,0,1,0,.36c0,.08.06.16.15.09a.69.69,0,0,0,.23-.54,3.09,3.09,0,0,0-.42-.33ZM11,12.75a.62.62,0,0,1-.41-.33l-.1.09-.1.05h0c-.07.22.33.4.58.34s.17-.15.05-.16Zm-.61-5.62s0-.1,0-.15a1.17,1.17,0,0,0-.19-.48c-.23-.3-.4.21-.43.39a.71.71,0,0,0,.08.54.41.41,0,0,0,.47.08c.13-.08.1-.25.09-.37Zm-.2.09a.12.12,0,1,1,.12-.12.12.12,0,0,1-.12.12Zm-1.15.66a.82.82,0,0,1-.21-.33l0-.16,0,0a1.1,1.1,0,0,0-.27.46A.55.55,0,0,0,8.67,8h0a.75.75,0,0,0,.26.09.91.91,0,0,1-.22-.35l0-.07,0,0c.07.16.36.2.36.2Zm7.08-.65A1.5,1.5,0,0,1,16,6.73a3.07,3.07,0,0,0-.1.58.57.57,0,0,0,.26.27c.11,0,.16,0,.15-.11s-.11-.13-.17-.23Zm-2.42,4.85a.58.58,0,0,1-.37.27c-.11,0-.23.1.06.16s.69-.15.56-.37l-.25-.06Zm-.32-4.81.06-.08a1.12,1.12,0,0,0-.43-.37V7a.89.89,0,0,1-.08.4s.26-.13.27-.3l0,0v.07a.89.89,0,0,1-.08.4.66.66,0,0,0,.24-.2Zm-2-.76a1.16,1.16,0,0,0-.06.51c0,.05,0,.1,0,.15s0,.29.18.34a.4.4,0,0,0,.44-.19A.71.71,0,0,0,12,6.8c-.08-.17-.37-.63-.52-.28Zm.1.67a.12.12,0,1,1,.12-.12.12.12,0,0,1-.12.12Z"/><path class="cls-7" d="M15.4,8.51a3.14,3.14,0,0,0,1.16,1.21A3.45,3.45,0,0,1,16,8.16c0,.21-.17.25-.65.35ZM7.45,12.09a3.19,3.19,0,0,1,.71,1.77,2.54,2.54,0,0,0,.09-.63v0l0,0c.09-.13.18-.27.28-.4-.07-.2-.75-.53-1.1-.68Zm9.16-.21,1.47,1.77,0-.29L16.87,12l-.26-.08ZM19.4,12l-2.07-1H17l2.5,1.3L19.4,12ZM5.63,16.66l0,.37,1.65-1.84-.09-.1-1.6,1.58Zm1.81,0,.13.2.6-1.25-.09,0-.64,1.09ZM9.92,9.82a2,2,0,0,0,1.59.25,2.61,2.61,0,0,0,1.59-1,5.82,5.82,0,0,1-1.85.76,3.36,3.36,0,0,1-1.32,0ZM4,4"/></svg>