<?xml version="1.0" encoding="utf-8"?>
<!-- Generator: Adobe Illustrator 22.1.0, SVG Export Plug-In . SVG Version: 6.00 Build 0)  -->
<svg version="1.1" id="Layer_1" xmlns="http://www.w3.org/2000/svg" xmlns:xlink="http://www.w3.org/1999/xlink" x="0px" y="0px"
	 viewBox="0 0 24 24" style="enable-background:new 0 0 24 24;" xml:space="preserve">
<style type="text/css">
	.st0{fill:none;}
	.st1{fill:#FFFFFF;}
	.st2{fill:#13518D;}
</style>
<title>cache_icon_type_wherigo</title>
<rect class="st0" width="24" height="24"/>
<circle class="st1" cx="12" cy="12" r="12"/>
<circle class="st2" cx="12" cy="12" r="10"/>
<path class="st1" d="M12.2,6.5C9,6.4,6.4,9,6.4,12.2l0,0c0,3.2,2.7,5.7,5.8,5.7l0,0c3.2,0,5.8-2.5,5.8-5.7l0,0
	C18,9,15.4,6.4,12.2,6.5L12.2,6.5z M12.4,14.4l-2.6-2.5l4.4-1.8L12.4,14.4z"/>
<path class="st1" d="M12.6,4.5l-0.1,1.3C13.8,5.9,15,6.4,16,7.1L16.9,6C15.6,5.1,14.1,4.6,12.6,4.5z M17.8,6.7
	c-0.1-0.1-0.3-0.2-0.3-0.2l-0.9,1c0,0,0.1,0.1,0.2,0.2S17,7.9,17,7.9L18,7C18,7,17.9,6.8,17.8,6.7z M17.4,8.3
	c0.8,0.9,1.3,2.1,1.4,3.3h0.3c-0.1-1.2-0.7-2.3-1.5-3.1L17.4,8.3L17.4,8.3z M19.1,12.2h-0.3c0,0.2,0,0.4,0,0.6h0.3
	C19.1,12.6,19.1,12.4,19.1,12.2L19.1,12.2z M17.1,16.6l0.3,0.3c0.3-0.3,0.5-0.6,0.7-0.9c0.5-0.8,0.9-1.7,1-2.7h-0.3
	C18.6,14.6,18,15.7,17.1,16.6z M16.1,17.4l0.2,0.3c0.2-0.1,0.4-0.2,0.5-0.4L16.6,17C16.5,17.2,16.3,17.3,16.1,17.4L16.1,17.4z
	 M12.5,18.6H12v0.5c1.3,0,2.7-0.3,3.8-1l-0.2-0.4C14.7,18.3,13.6,18.6,12.5,18.6L12.5,18.6z M10.6,19c0.2,0.1,0.5,0.1,0.7,0.1
	l0.1-0.6l-0.6-0.1L10.6,19L10.6,19z M7.1,16.2l-0.7,0.5c0.9,1.1,2.2,1.8,3.5,2.2l0.2-0.6c-0.6-0.2-1.3-0.5-1.9-0.9
	C7.5,16.8,7.3,16.4,7.1,16.2z M6.4,15.2l-0.8,0.4C5.7,15.8,5.8,16,6,16.2l0.8-0.5C6.6,15.5,6.5,15.3,6.4,15.2L6.4,15.2z M5.7,11.1
	L4.6,11c-0.2,1.4,0.1,2.8,0.7,4l0.9-0.3C5.6,13.5,5.5,12.3,5.7,11.1L5.7,11.1z M6,10L4.9,9.6C4.8,9.8,4.8,10,4.7,10.2l1.1,0.3
	C5.9,10.3,5.9,10.1,6,10z M7.4,7.7c0.9-0.9,2-1.5,3.2-1.8l-0.3-1.2C8.4,5.2,6.7,6.3,5.6,8C5.5,8.2,5.3,8.5,5.2,8.8l1,0.5
	C6.5,8.7,6.9,8.2,7.4,7.7z M11.3,5.8l0.6-0.1l0-1.3c-0.2,0-0.5,0-0.8,0.1L11.3,5.8z"/>
</svg>
