<svg id="Layer_1" data-name="Layer 1" xmlns="http://www.w3.org/2000/svg" viewBox="0 0 24 24"><defs><style>.cls-1{fill:none;}.cls-2{fill:#fff;}.cls-3{fill:#e88524;}</style></defs><title>cache_icon_type_multi</title><rect class="cls-1" width="24" height="24"/><circle class="cls-2" cx="12" cy="12" r="12"/><circle class="cls-3" cx="12" cy="12" r="10"/><path class="cls-2" d="M15.77,10.48h-4.5l-6,1.14s-.15,0-.15.28v.46a.23.23,0,0,0,.23.26h0l.19,0v2.72a1.11,1.11,0,0,0,1,1.17H9.83a.92.92,0,0,0,.47-.14h0l4.23-1.53c.91-.4.93-.77.93-1.35s0-2.17,0-2.17a2.41,2.41,0,0,1,.3,0,.17.17,0,0,0,.11-.16v-.54c0-.09-.1-.12-.11-.12ZM9.34,15.67H6.88a.58.58,0,0,1-.5-.64V12.65H9.84V15a.59.59,0,0,1-.5.65Zm5.26-2.44a.84.84,0,0,1-.61.86l-3.31,1.13a1.13,1.13,0,0,0,0-.2V12.65l3.89-1.06c0,.16,0,1.3,0,1.64Zm4.16-5.15-6.33-.62-4.65.68a.17.17,0,0,0-.1.14V9a.15.15,0,0,0,.11.16s.26,0,.33,0h0V10L9,9.89V9.24l5.24.36.61,0H15c1.12-.11,2-.22,2.66-.3v2c0,.36-.22.42-.5.44l-.81.15c0,.08,0,.11,0,.18s0,.45,0,.55l1.15-.15a1.24,1.24,0,0,0,1-1.28v-2l.18,0a.26.26,0,0,0,.24-.28c0-.14,0-.37,0-.52s-.14-.28-.14-.28Z"/></svg>