<svg id="Layer_1" data-name="Layer 1" xmlns="http://www.w3.org/2000/svg" viewBox="0 0 24 24"><defs><style>.cls-1{fill:none;}.cls-2{fill:#fff;}.cls-3{fill:#089cbc;}</style></defs><title>cache_icon_type_webcam</title><rect class="cls-1" width="24" height="24"/><circle class="cls-2" cx="12" cy="12" r="12"/><circle class="cls-3" cx="12" cy="12" r="10"/><path class="cls-2" d="M12,9.44a1.78,1.78,0,1,0,1.81,1.78A1.79,1.79,0,0,0,12,9.44Zm2,6.31A5,5,0,1,0,7,11.2a5,5,0,0,0,3,4.55C8.77,16.2,7.8,17,7.8,17.54a.2.2,0,0,0,.22.22h8a.21.21,0,0,0,.22-.22c0-.57-1-1.34-2.21-1.79Zm-2-2a2.59,2.59,0,1,1,2.63-2.59A2.61,2.61,0,0,1,12,13.79Z"/></svg>