<svg id="Layer_1" data-name="Layer 1" xmlns="http://www.w3.org/2000/svg" viewBox="0 0 24 24"><defs><style>.cls-1{fill:none;}.cls-2{fill:#fff;}.cls-3{fill:#12b265;}</style></defs><title>cache_icon_type_blockparty</title><rect class="cls-1" width="24" height="24"/><circle class="cls-2" cx="12" cy="12" r="12"/><circle class="cls-3" cx="12" cy="12" r="10"/><path class="cls-2" d="M6.34,16l1.43,1.43V8.13L6.34,6.69ZM16,6.34H6.69L8.13,7.77h9.3Zm1.07,6.43h-.82a3.24,3.24,0,0,0-.5-1.43l-.56.37a2.57,2.57,0,0,1,.39,1.05h-2.1V10.61a2.38,2.38,0,0,1,1.09.46h0l.39-.54a3.06,3.06,0,0,0-1.49-.6V9.18h3.59Zm-4.29,0H10.63a4.75,4.75,0,0,1,0-1.25,1.63,1.63,0,0,1,.24-.54c.56,0,.93.75,1,.8a1.42,1.42,0,0,1,.65.08c-.25-.82-1.35-1.3-1.35-1.3a2.91,2.91,0,0,0,.76-1.15h-.11a3.29,3.29,0,0,1-.92.89,2.27,2.27,0,0,1-.4-.19l.11-.1-1,.55.16.14.37-.32c.17.2.29.32.29.32A3.14,3.14,0,0,0,10,12.76H9.18V9.18h3.59Zm0,3.55v.74H9.18V13.47H10a3.18,3.18,0,0,0,.51,1.46l.56-.38a2.53,2.53,0,0,1-.39-1.08h2.06v2.17a2.37,2.37,0,0,1-1-.45h0l-.39.54a3,3,0,0,0,1.43.59ZM8.47,17.78h9.31V8.47H8.47Zm2.38-8a.08.08,0,1,1-.1.08.09.09,0,0,1,.1-.08Zm0,.21a.3.3,0,1,0-.3-.3.3.3,0,0,0,.3.3Zm-.64-.12a2,2,0,0,1-.47-.5h-.2a3.5,3.5,0,0,0,.33.57ZM15,16.74l-.21-1.32,1.87-1.36H14.49l-.12,0,.43,2.69Zm-5-6.62.08.1.34-.18L10.34,10l.21-.08L10.3,10h0l-.15,0-.68.14.09.15Z"/><rect class="cls-3" x="13.45" y="13.49" width="3.59" height="3.59"/><polygon class="cls-2" points="14.73 16.71 14.52 15.38 16.39 14.02 14.21 14.03 14.1 14.05 14.53 16.74 14.73 16.71"/></svg>