<svg id="Layer_1" data-name="Layer 1" xmlns="http://www.w3.org/2000/svg" viewBox="0 0 24 24"><defs><style>.cls-1{fill:none;}.cls-2{fill:#fff;}.cls-3{fill:#87705b;}</style></defs><title>cache_icon_type_locationless</title><rect class="cls-1" width="24" height="24"/><circle class="cls-2" cx="12" cy="12" r="12"/><circle class="cls-3" cx="12" cy="12" r="10"/><path class="cls-2" d="M12.6,8.58a5.7,5.7,0,1,0,4.62,6.6,5.7,5.7,0,0,0-4.62-6.6Zm-.91,1.14-1.06.75-.29-.71-.11-.59-.43.65-.67,0,.31-.26-.13-.07-1,1,.3.52.47-1,.57.31.16.91h0l0,.29-.17-.11.12-.18h0l-.46.06s.11.35.08.34a1.7,1.7,0,0,0-.43.08,6.48,6.48,0,0,0-.88.88L8,13.07l-.37-.37-.37,0L7,13.42l.23.14.29-.15.23.39v.35l.52.06,1,.3.5,1,.38.28-.78.9-.48,1.05-.39.33-.12.28-.54-.62,0-.89L7.5,15.72v-.77L8,14.57,6.9,13.5l-.45-.78s.12-1.16,2.15-2.83A4.35,4.35,0,0,1,12.28,9l-.43.68-.16.07Zm2.41,7.43-.52.69-.83.52-.25-.81,0-1.18-.16-1.21-.74,0-.43-.88.37-.63.62-.71.25-.11.37.09.31,0,.2.39.94.17s0,0,.36.52.32.63.32.63l-.24.41-.15,0,.42.14-.87,1.89Zm1.77-3.08-.5,0a1.06,1.06,0,0,0-.31-.54,6.63,6.63,0,0,0-.77-.46L14,13l-.18-.33-.24.25,0-.15h-.27l-.38-.57-.39.06-.25.18L12,12.39l.08-.29h.36l.15-.49-.24-.11.06-.36-.23,0,.26-.12,0-.22.07,0,.19.67.41-.13,0-.27.1.28h.42l.28-.61h-.1l0-.29-.35.72-.2-.32-.07.07L13,10.68l1.09-.91.83.57.5.12a3.68,3.68,0,0,1,1,1.93c.27,1.3.42,2,.42,2l-.46,1-.51-1.39Zm-1.81-9.5L13.55,7.5l3.91-.82-3.39-2.1Zm-1.4,3.58a.48.48,0,0,0,.28-.09l.68-3.83-.49-.09L12.45,8a.4.4,0,0,0,.21.17Z"/></svg>